<svg width="48" height="48" viewBox="0 0 48 48" fill="none" xmlns="http://www.w3.org/2000/svg">
<circle cx="24" cy="24" r="24" fill="#131218"/>
<path d="M12.004 32H9.848V16.094H15.854C19.264 16.094 21.288 17.898 21.288 20.868C21.288 23.068 20.188 24.652 18.208 25.29L21.442 32H19.044L16.074 25.708H12.004V32ZM12.004 18.03V23.794H15.876C17.878 23.794 19.022 22.716 19.022 20.89C19.022 19.042 17.834 18.03 15.854 18.03H12.004ZM27.7591 32.264C24.5911 32.264 22.4131 29.976 22.4131 26.632C22.4131 23.266 24.5471 20.934 27.6711 20.934C30.7291 20.934 32.7311 23.046 32.7311 26.236V27.006L24.4151 27.028C24.5691 29.294 25.7571 30.548 27.8031 30.548C29.4091 30.548 30.4651 29.888 30.8171 28.656H32.7531C32.2251 30.966 30.4211 32.264 27.7591 32.264ZM27.6711 22.672C25.8671 22.672 24.7231 23.75 24.4591 25.642H30.6631C30.6631 23.86 29.4971 22.672 27.6711 22.672ZM36.0529 18.69C35.3049 18.69 34.6889 18.074 34.6889 17.326C34.6889 16.556 35.3049 15.962 36.0529 15.962C36.8009 15.962 37.4169 16.556 37.4169 17.326C37.4169 18.074 36.8009 18.69 36.0529 18.69ZM35.0409 32V21.242H37.1089V32H35.0409Z" fill="#D95858"/>
</svg>
