<svg width="48" height="48" viewBox="0 0 48 48" fill="none" xmlns="http://www.w3.org/2000/svg">
<path d="M41.5612 25.0613L28.0613 38.5613C27.7798 38.8427 27.398 39.0008 27 39.0008C26.602 39.0008 26.2202 38.8427 25.9387 38.5613C25.6573 38.2798 25.4992 37.8981 25.4992 37.5C25.4992 37.102 25.6573 36.7202 25.9387 36.4388L36.8794 25.5H7.5C7.10218 25.5 6.72064 25.342 6.43934 25.0607C6.15804 24.7794 6 24.3978 6 24C6 23.6022 6.15804 23.2206 6.43934 22.9393C6.72064 22.658 7.10218 22.5 7.5 22.5H36.8794L25.9387 11.5613C25.6573 11.2798 25.4992 10.898 25.4992 10.5C25.4992 10.102 25.6573 9.72021 25.9387 9.43875C26.2202 9.15729 26.602 8.99917 27 8.99917C27.398 8.99917 27.7798 9.15729 28.0613 9.43875L41.5612 22.9388C41.7007 23.0781 41.8114 23.2435 41.8868 23.4256C41.9623 23.6077 42.0012 23.8029 42.0012 24C42.0012 24.1971 41.9623 24.3923 41.8868 24.5744C41.8114 24.7565 41.7007 24.9219 41.5612 25.0613Z" fill="#111111"/>
</svg>
