<svg width="28" height="28" viewBox="0 0 28 28" fill="none" xmlns="http://www.w3.org/2000/svg">
<path d="M27.1248 2V21.5C27.1248 21.7984 27.0062 22.0845 26.7953 22.2955C26.5843 22.5065 26.2981 22.625 25.9998 22.625C25.7014 22.625 25.4153 22.5065 25.2043 22.2955C24.9933 22.0845 24.8748 21.7984 24.8748 21.5V4.715L2.79477 26.795C2.58151 26.9937 2.29944 27.1019 2.00799 27.0968C1.71653 27.0916 1.43846 26.9736 1.23234 26.7674C1.02622 26.5613 0.90815 26.2832 0.903007 25.9918C0.897865 25.7003 1.00605 25.4183 1.20477 25.205L23.2848 3.125H6.49977C6.2014 3.125 5.91525 3.00647 5.70428 2.79549C5.4933 2.58452 5.37477 2.29837 5.37477 2C5.37477 1.70163 5.4933 1.41548 5.70428 1.2045C5.91525 0.993526 6.2014 0.875 6.49977 0.875H25.9998C26.2981 0.875 26.5843 0.993526 26.7953 1.2045C27.0062 1.41548 27.1248 1.70163 27.1248 2Z" fill="white"/>
</svg>
