<svg width="48" height="48" viewBox="0 0 48 48" fill="none" xmlns="http://www.w3.org/2000/svg">
<path d="M29.6762 33.7752C29.7568 33.7753 29.8367 33.7591 29.9109 33.7276C29.9852 33.696 30.0523 33.6498 30.1082 33.5916L38.939 24.4344C39.0469 24.3229 39.1073 24.1738 39.1073 24.0186C39.1073 23.8634 39.0469 23.7143 38.939 23.6028L30.0698 14.4084C30.016 14.3483 29.9507 14.2996 29.8777 14.2653C29.8047 14.231 29.7255 14.2118 29.6449 14.2087C29.5644 14.2057 29.484 14.219 29.4086 14.2477C29.3333 14.2765 29.2645 14.3201 29.2064 14.376C29.1483 14.4319 29.102 14.499 29.0704 14.5732C29.0388 14.6474 29.0225 14.7272 29.0225 14.8079C29.0224 14.8885 29.0386 14.9684 29.0701 15.0426C29.1016 15.1169 29.1477 15.184 29.2058 15.24L37.673 24.018L29.2442 32.7588C29.1625 32.8436 29.1075 32.9505 29.0861 33.0663C29.0647 33.182 29.0779 33.3015 29.1239 33.4099C29.17 33.5183 29.2469 33.6107 29.3451 33.6756C29.4433 33.7406 29.5584 33.7752 29.6762 33.7752Z" fill="#111111"/>
<path d="M9.49209 24.618H38.5081C38.6672 24.618 38.8198 24.5548 38.9324 24.4422C39.0449 24.3297 39.1081 24.1771 39.1081 24.018C39.1081 23.8588 39.0449 23.7062 38.9324 23.5937C38.8198 23.4812 38.6672 23.418 38.5081 23.418H9.49209C9.33296 23.418 9.18035 23.4812 9.06783 23.5937C8.9553 23.7062 8.89209 23.8588 8.89209 24.018C8.89209 24.1771 8.9553 24.3297 9.06783 24.4422C9.18035 24.5548 9.33296 24.618 9.49209 24.618Z" fill="#111111"/>
</svg>
