<svg width="36" height="36" viewBox="0 0 36 36" fill="none" xmlns="http://www.w3.org/2000/svg">
<circle cx="18" cy="18" r="18" fill="#131218"/>
<g clip-path="url(#clip0_17_68)">
<path d="M20.9728 9.432C19.017 8.97753 16.983 8.97753 15.0272 9.432C13.8976 8.7392 13.0352 8.4208 12.408 8.2864C12.1403 8.22599 11.8664 8.19752 11.592 8.2016C11.4671 8.20499 11.3429 8.21998 11.2208 8.2464L11.2048 8.2496L11.1984 8.2528H11.1936L11.4128 9.0224L11.1936 8.2544C11.0812 8.28617 10.9771 8.34216 10.8887 8.41845C10.8002 8.49474 10.7295 8.58948 10.6816 8.696C10.2096 9.75313 10.1196 10.9415 10.4272 12.0576C9.63062 13.023 9.19652 14.2364 9.2 15.488C9.2 17.9728 9.9328 19.6432 11.1824 20.7168C12.0576 21.4688 13.12 21.8688 14.1856 22.0976C14.0179 22.5901 13.9547 23.1121 14 23.6304V24.5872C13.3488 24.7232 12.8976 24.68 12.576 24.5744C12.1744 24.4416 11.8656 24.1744 11.5696 23.7904C11.4149 23.5834 11.2707 23.3687 11.1376 23.1472L11.0464 22.9984C10.9312 22.8069 10.8117 22.6181 10.688 22.432C10.384 21.9824 9.9328 21.4192 9.2032 21.2272L8.4288 21.024L8.0224 22.5728L8.7968 22.776C8.9248 22.808 9.0912 22.928 9.3648 23.3296C9.47011 23.4881 9.57147 23.6492 9.6688 23.8128L9.7776 23.9888C9.928 24.232 10.1008 24.5008 10.3008 24.7632C10.7056 25.2912 11.2576 25.824 12.0768 26.0944C12.6368 26.28 13.2736 26.3248 14 26.2128V29.2C14 29.4122 14.0843 29.6157 14.2343 29.7657C14.3843 29.9157 14.5878 30 14.8 30H21.2C21.4122 30 21.6157 29.9157 21.7657 29.7657C21.9157 29.6157 22 29.4122 22 29.2V23.4992C22 22.9952 21.9776 22.5328 21.8352 22.1024C22.896 21.8784 23.9504 21.4784 24.8208 20.7264C26.0688 19.6448 26.8 17.9584 26.8 15.4592V15.4576C26.796 14.2163 26.3617 13.0147 25.5712 12.0576C25.8784 10.942 25.7885 9.75427 25.3168 8.6976C25.2692 8.59095 25.1989 8.49601 25.1107 8.41945C25.0225 8.34288 24.9187 8.28655 24.8064 8.2544L24.5872 9.0224C24.8064 8.2544 24.8048 8.2544 24.8032 8.2544L24.8 8.2528L24.7936 8.2496L24.7792 8.2464C24.7397 8.23613 24.6996 8.22811 24.6592 8.2224C24.5755 8.21017 24.491 8.20323 24.4064 8.2016C24.132 8.19755 23.8581 8.22602 23.5904 8.2864C22.9648 8.4208 22.1024 8.7392 20.9728 9.432Z" fill="white"/>
</g>
<defs>
<clipPath id="clip0_17_68">
<rect width="24" height="24" fill="white" transform="translate(6 6)"/>
</clipPath>
</defs>
</svg>
