<svg width="48" height="48" viewBox="0 0 48 48" fill="none" xmlns="http://www.w3.org/2000/svg">
<circle cx="24" cy="24" r="24" fill="#131218"/>
<path d="M31.1198 15.28C30.8034 15.28 30.494 15.3738 30.2309 15.5497C29.9678 15.7255 29.7627 15.9753 29.6416 16.2677C29.5205 16.5601 29.4888 16.8818 29.5506 17.1921C29.6123 17.5025 29.7647 17.7876 29.9885 18.0114C30.2122 18.2351 30.4973 18.3875 30.8077 18.4493C31.1181 18.511 31.4398 18.4793 31.7321 18.3582C32.0245 18.2371 32.2744 18.032 32.4502 17.7689C32.626 17.5058 32.7198 17.1965 32.7198 16.88C32.7198 16.4557 32.5513 16.0487 32.2512 15.7486C31.9511 15.4486 31.5442 15.28 31.1198 15.28ZM37.2532 18.5067C37.2272 17.4004 37.02 16.3059 36.6398 15.2667C36.3008 14.3775 35.7731 13.5724 35.0932 12.9067C34.4329 12.2232 33.6259 11.6989 32.7332 11.3733C31.6967 10.9816 30.601 10.7696 29.4932 10.7467C28.0798 10.6667 27.6265 10.6667 23.9998 10.6667C20.3732 10.6667 19.9198 10.6667 18.5065 10.7467C17.3987 10.7696 16.303 10.9816 15.2665 11.3733C14.3754 11.7022 13.5691 12.2261 12.9065 12.9067C12.2231 13.5669 11.6987 14.3739 11.3732 15.2667C10.9814 16.3031 10.7695 17.3989 10.7465 18.5067C10.6665 19.92 10.6665 20.3733 10.6665 24C10.6665 27.6267 10.6665 28.08 10.7465 29.4933C10.7695 30.6011 10.9814 31.6969 11.3732 32.7333C11.6987 33.6261 12.2231 34.4331 12.9065 35.0933C13.5691 35.7739 14.3754 36.2978 15.2665 36.6267C16.303 37.0185 17.3987 37.2304 18.5065 37.2533C19.9198 37.3333 20.3732 37.3333 23.9998 37.3333C27.6265 37.3333 28.0798 37.3333 29.4932 37.2533C30.601 37.2304 31.6967 37.0185 32.7332 36.6267C33.6259 36.3011 34.4329 35.7768 35.0932 35.0933C35.7762 34.4301 36.3043 33.6243 36.6398 32.7333C37.02 31.6941 37.2272 30.5996 37.2532 29.4933C37.2532 28.08 37.3332 27.6267 37.3332 24C37.3332 20.3733 37.3332 19.92 37.2532 18.5067ZM34.8532 29.3333C34.8435 30.1797 34.6902 31.0183 34.3998 31.8133C34.1869 32.3936 33.845 32.9179 33.3998 33.3467C32.9674 33.7873 32.4441 34.1286 31.8665 34.3467C31.0714 34.637 30.2329 34.7903 29.3865 34.8C28.0532 34.8667 27.5598 34.88 24.0532 34.88C20.5465 34.88 20.0532 34.88 18.7198 34.8C17.841 34.8165 16.966 34.6811 16.1332 34.4C15.5809 34.1708 15.0816 33.8304 14.6665 33.4C14.224 32.9717 13.8863 32.4469 13.6798 31.8667C13.3543 31.0602 13.1738 30.2026 13.1465 29.3333C13.1465 28 13.0665 27.5067 13.0665 24C13.0665 20.4933 13.0665 20 13.1465 18.6667C13.1525 17.8014 13.3104 16.9439 13.6132 16.1333C13.8479 15.5706 14.2082 15.0689 14.6665 14.6667C15.0716 14.2082 15.5722 13.8441 16.1332 13.6C16.9459 13.3067 17.8025 13.1534 18.6665 13.1467C19.9998 13.1467 20.4932 13.0667 23.9998 13.0667C27.5065 13.0667 27.9998 13.0667 29.3332 13.1467C30.1795 13.1564 31.0181 13.3097 31.8132 13.6C32.4191 13.8249 32.9629 14.1905 33.3998 14.6667C33.8368 15.0762 34.1782 15.577 34.3998 16.1333C34.6962 16.9452 34.8496 17.8024 34.8532 18.6667C34.9198 20 34.9332 20.4933 34.9332 24C34.9332 27.5067 34.9198 28 34.8532 29.3333ZM23.9998 17.16C22.6476 17.1626 21.3265 17.566 20.2034 18.3192C19.0803 19.0724 18.2057 20.1416 17.69 21.3917C17.1744 22.6418 17.0408 24.0166 17.3062 25.3426C17.5717 26.6685 18.2242 27.8861 19.1813 28.8413C20.1384 29.7966 21.3572 30.4467 22.6836 30.7095C24.0101 30.9724 25.3847 30.8361 26.6338 30.3181C27.8829 29.8 28.9503 28.9233 29.7013 27.7987C30.4523 26.6742 30.8532 25.3523 30.8532 24C30.8549 23.1001 30.6788 22.2088 30.3348 21.3773C29.9909 20.5457 29.4859 19.7904 28.849 19.1547C28.2121 18.5191 27.4558 18.0156 26.6236 17.6732C25.7914 17.3309 24.8997 17.1565 23.9998 17.16ZM23.9998 28.44C23.1217 28.44 22.2633 28.1796 21.5331 27.6917C20.803 27.2039 20.2339 26.5104 19.8978 25.6991C19.5618 24.8878 19.4738 23.9951 19.6451 23.1338C19.8165 22.2725 20.2393 21.4814 20.8603 20.8605C21.4812 20.2395 22.2724 19.8166 23.1336 19.6453C23.9949 19.474 24.8876 19.5619 25.699 19.898C26.5103 20.234 27.2037 20.8031 27.6916 21.5333C28.1794 22.2634 28.4398 23.1219 28.4398 24C28.4398 24.5831 28.325 25.1604 28.1019 25.6991C27.8787 26.2378 27.5517 26.7273 27.1394 27.1396C26.7271 27.5519 26.2376 27.8789 25.699 28.102C25.1603 28.3252 24.5829 28.44 23.9998 28.44Z" fill="white"/>
</svg>
