<svg width="39" height="39" viewBox="0 0 39 39" fill="none" xmlns="http://www.w3.org/2000/svg">
<rect width="39" height="39" rx="19.5" fill="#131218"/>
<path d="M23.207 15.297C22.4867 15.297 21.9534 15.4787 21.5359 15.7081C21.469 15.4702 21.249 15.2959 20.9898 15.348H17.8197C17.5063 15.2959 17.2524 15.5498 17.3491 15.8792V27.5653C17.2524 27.8628 17.5063 28.1177 17.8197 28.0965H20.9898C21.3032 28.1177 21.5571 27.8628 21.5571 27.5494L21.5561 20.4867C21.555 20.4835 21.5433 20.1457 21.7569 19.913C21.9279 19.7282 22.2222 19.6336 22.6291 19.6336C23.3069 19.6336 23.6086 19.9109 23.7212 20.5313V27.5494C23.6096 27.8628 23.8635 28.1177 24.1769 28.0965H27.5181C27.8315 28.1177 28.0854 27.8628 27.9728 27.5494V20.2955C28.0844 16.6069 25.4571 15.297 23.207 15.297ZM26.9497 27.0341H24.7443V20.5313C24.7443 19.2767 23.9337 18.499 22.6301 18.499C21.8928 18.499 21.3192 18.7157 20.924 19.1428C20.3747 19.7377 20.4172 20.492 20.5351 20.6599V27.0341H18.387V16.4316H20.4225V16.7886C20.4217 16.8949 20.4509 16.9993 20.5067 17.0898C20.5626 17.1803 20.6428 17.2532 20.7382 17.3002C20.8337 17.3471 20.9404 17.3661 21.0461 17.3551C21.1519 17.3441 21.2524 17.3035 21.3362 17.238L21.4849 17.1232C21.9151 16.7843 22.3603 16.4327 23.2081 16.4327C24.0856 16.4327 26.9508 16.7121 26.9508 20.2965L26.9497 27.0341ZM14.1609 10C12.9689 10 12 10.9689 12 12.1609C12 13.3529 12.9689 14.3217 14.1609 14.3217C15.3529 14.3217 16.3217 13.3529 16.3217 12.1609C16.3217 10.9689 15.3529 10 14.1609 10ZM14.1609 13.1871C13.5957 13.1871 13.1346 12.7261 13.1346 12.1609C13.1346 11.5957 13.5957 11.1346 14.1609 11.1346C14.7261 11.1346 15.1871 11.5957 15.1871 12.1609C15.1871 12.7261 14.7261 13.1871 14.1609 13.1871ZM15.6779 15.2959H12.5248C12.2114 15.2959 11.9575 15.5498 12.0361 15.8792V27.5653C11.9575 27.8628 12.2114 28.1177 12.5248 28.0965H15.6779C15.9913 28.1177 16.2453 27.8628 16.2453 27.5494V15.8632C16.2453 15.7128 16.1855 15.5685 16.0791 15.4621C15.9727 15.3557 15.8284 15.2959 15.6779 15.2959ZM15.2232 27.0341H13.0921V16.4316H15.2232V27.0341Z" fill="#F4F4F4"/>
</svg>
