<svg width="48" height="48" viewBox="0 0 48 48" fill="none" xmlns="http://www.w3.org/2000/svg">
<circle cx="24" cy="24" r="24" transform="matrix(-1 0 0 1 48 0)" fill="#131218"/>
<g clip-path="url(#clip0_120_300)">
<path d="M29.2313 23.972L36.4075 17.7373V30.1355L29.2313 23.972ZM19.9843 25.0278L22.5043 27.2153C22.8998 27.5513 23.4155 27.7543 23.979 27.7543H23.9988H24.014C24.5787 27.7543 25.0943 27.5502 25.4945 27.2118L25.491 27.2142L28.011 25.0267L35.6713 31.6055H12.3275L19.9843 25.0278ZM12.317 16.2592H35.6853L24.4608 26.0078C24.3346 26.1077 24.1784 26.1619 24.0175 26.1618H24.0012H23.986C23.8245 26.162 23.6678 26.1073 23.5415 26.0067L23.5427 26.0078L12.317 16.2592ZM11.5925 17.7362L18.7675 23.9708L11.5925 30.1308V17.7362ZM36.7925 14.8883C36.5125 14.7483 36.1835 14.6667 35.8347 14.6667H12.1688C11.8307 14.6668 11.4972 14.7454 11.1947 14.8965L11.2075 14.8907C10.8453 15.0693 10.5403 15.3456 10.327 15.6885C10.1136 16.0313 10.0003 16.427 10 16.8308V31.0315C10.0006 31.6062 10.2292 32.1572 10.6356 32.5636C11.042 32.97 11.593 33.1986 12.1677 33.1992H35.8312C36.4059 33.1986 36.9569 32.97 37.3633 32.5636C37.7696 32.1572 37.9982 31.6062 37.9988 31.0315V16.8308C37.9988 15.9827 37.51 15.2477 36.7983 14.8942L36.7855 14.8883H36.7925Z" fill="white"/>
</g>
<defs>
<clipPath id="clip0_120_300">
<rect width="28" height="28" fill="white" transform="translate(10 10)"/>
</clipPath>
</defs>
</svg>
