<svg width="39" height="39" viewBox="0 0 39 39" fill="none" xmlns="http://www.w3.org/2000/svg">
<path d="M7.44 14.592H10.008V16.992H10.056C10.136 16.656 10.288 16.328 10.512 16.008C10.752 15.688 11.032 15.4 11.352 15.144C11.688 14.872 12.056 14.656 12.456 14.496C12.856 14.336 13.264 14.256 13.68 14.256C14 14.256 14.216 14.264 14.328 14.28C14.456 14.296 14.584 14.312 14.712 14.328V16.968C14.52 16.936 14.32 16.912 14.112 16.896C13.92 16.864 13.728 16.848 13.536 16.848C13.072 16.848 12.632 16.944 12.216 17.136C11.816 17.312 11.464 17.584 11.16 17.952C10.856 18.304 10.616 18.744 10.44 19.272C10.264 19.8 10.176 20.408 10.176 21.096V27H7.44V14.592ZM23.9756 19.704C23.9436 19.272 23.8476 18.856 23.6876 18.456C23.5436 18.056 23.3356 17.712 23.0636 17.424C22.8076 17.12 22.4876 16.88 22.1036 16.704C21.7356 16.512 21.3196 16.416 20.8556 16.416C20.3756 16.416 19.9356 16.504 19.5356 16.68C19.1516 16.84 18.8156 17.072 18.5276 17.376C18.2556 17.664 18.0316 18.008 17.8556 18.408C17.6956 18.808 17.6076 19.24 17.5916 19.704H23.9756ZM17.5916 21.504C17.5916 21.984 17.6556 22.448 17.7836 22.896C17.9276 23.344 18.1356 23.736 18.4076 24.072C18.6796 24.408 19.0236 24.68 19.4396 24.888C19.8556 25.08 20.3516 25.176 20.9276 25.176C21.7276 25.176 22.3676 25.008 22.8476 24.672C23.3436 24.32 23.7116 23.8 23.9516 23.112H26.5436C26.3996 23.784 26.1516 24.384 25.7996 24.912C25.4476 25.44 25.0236 25.888 24.5276 26.256C24.0316 26.608 23.4716 26.872 22.8476 27.048C22.2396 27.24 21.5996 27.336 20.9276 27.336C19.9516 27.336 19.0876 27.176 18.3356 26.856C17.5836 26.536 16.9436 26.088 16.4156 25.512C15.9036 24.936 15.5116 24.248 15.2396 23.448C14.9836 22.648 14.8556 21.768 14.8556 20.808C14.8556 19.928 14.9916 19.096 15.2636 18.312C15.5516 17.512 15.9516 16.816 16.4636 16.224C16.9916 15.616 17.6236 15.136 18.3596 14.784C19.0956 14.432 19.9276 14.256 20.8556 14.256C21.8316 14.256 22.7036 14.464 23.4716 14.88C24.2556 15.28 24.9036 15.816 25.4156 16.488C25.9276 17.16 26.2956 17.936 26.5196 18.816C26.7596 19.68 26.8236 20.576 26.7116 21.504H17.5916ZM28.8636 9.864H31.5996V12.456H28.8636V9.864ZM28.8636 14.592H31.5996V27H28.8636V14.592Z" fill="white"/>
</svg>
